<?xml version="1.0" standalone="no"?>
<!DOCTYPE svg PUBLIC "-//W3C//DTD SVG 20010904//EN"
 "http://www.w3.org/TR/2001/REC-SVG-20010904/DTD/svg10.dtd">
<svg version="1.0" xmlns="http://www.w3.org/2000/svg"
 width="150" height="80" viewBox="0 0 879.000000 494.000000"
 preserveAspectRatio="xMidYMid meet">

<g transform="translate(0.000000,494.000000) scale(0.100000,-0.100000)"
fill="#58595b" stroke="none">
<path fill="#23aae1" d="M3445 4484 c-526 -53 -959 -346 -1196 -809 -25 -50 -59 -129 -74
-176 l-28 -85 -131 -12 c-373 -34 -682 -177 -941 -437 -406 -406 -544 -987
-365 -1536 69 -211 198 -417 365 -584 258 -258 566 -402 936 -437 292 -27 624
47 881 198 l78 46 0 210 0 209 -72 -59 c-102 -83 -154 -116 -260 -167 -634
-303 -1393 21 -1618 692 -204 609 132 1277 746 1482 169 57 340 73 540 50 53
-6 98 -8 100 -6 2 2 14 55 25 118 49 270 145 458 328 640 218 217 458 322 766
336 323 14 626 -108 857 -344 196 -202 291 -411 326 -721 10 -84 20 -153 22
-154 3 0 75 22 160 50 203 67 334 92 500 99 278 12 545 -44 785 -164 98 -49
236 -136 301 -190 l42 -33 228 2 229 3 -105 109 c-58 59 -139 135 -180 169
-271 218 -590 359 -945 414 -147 23 -430 22 -575 -1 -58 -10 -121 -20 -140
-22 l-35 -6 -29 96 c-155 510 -612 909 -1146 1000 -96 17 -301 27 -375 20z"/>
<path  d="M4110 2025 l0 -815 100 0 100 0 0 815 0 815 -100 0 -100 0 0 -815z"/>
<path  d="M7940 2509 l0 -331 -47 50 c-73 77 -142 105 -273 110 -88 3 -115 0
-169 -18 -157 -53 -255 -157 -318 -336 -24 -72 -27 -93 -27 -224 -1 -166 16
-240 79 -345 47 -77 77 -109 147 -155 82 -54 166 -74 278 -68 79 5 101 11 164
42 69 34 127 85 167 146 16 24 17 22 24 -72 l7 -98 90 0 c78 0 89 2 84 16 -3
9 -6 375 -6 815 l0 799 -100 0 -100 0 0 -331z m-197 -339 c66 -25 132 -88 166
-160 25 -53 26 -61 26 -240 0 -214 -7 -241 -90 -329 -113 -120 -312 -123 -429
-7 -165 166 -147 556 31 692 84 64 198 81 296 44z"/>
<path  d="M3328 2770 c-189 -32 -371 -137 -474 -273 -56 -74 -117 -198 -141
-287 -26 -93 -25 -397 0 -490 79 -288 299 -476 606 -521 145 -20 377 1 497 46
l42 16 -21 77 -20 78 -66 -23 c-262 -87 -558 -28 -710 143 -148 166 -191 470
-101 715 34 93 69 147 141 214 70 66 107 88 203 120 139 47 318 44 463 -6 31
-10 59 -17 63 -14 4 2 15 32 25 67 9 34 19 67 22 74 5 15 -96 49 -187 64 -74
11 -273 11 -342 0z"/>
<path  d="M5045 2339 c-300 -29 -491 -282 -472 -626 15 -259 158 -449 384 -508
67 -18 200 -20 275 -4 142 29 280 131 346 256 68 129 92 332 57 482 -66 278
-288 428 -590 400z m187 -166 c124 -56 203 -192 215 -373 16 -260 -139 -467
-348 -463 -71 1 -134 28 -193 83 -60 55 -93 113 -116 207 -64 250 44 505 237
559 61 18 148 12 205 -13z"/>
<path  d="M5902 1928 c4 -328 7 -403 21 -451 38 -131 99 -210 196 -256 51 -23
67 -26 171 -26 102 1 121 4 170 27 67 31 123 75 164 129 l31 40 7 -43 c3 -24
7 -64 7 -90 l1 -48 91 0 c90 0 91 0 85 23 -3 12 -6 262 -6 555 l0 532 -100 0
-100 0 0 -358 c0 -408 -3 -428 -71 -506 -74 -84 -190 -123 -289 -96 -63 17
-132 88 -156 160 -16 48 -18 102 -22 428 l-3 372 -100 0 -101 0 4 -392z"/>
<path  d="M2309 1447 c-65 -44 -76 -157 -20 -219 23 -26 37 -32 84 -36 42 -3
63 0 82 12 83 54 87 184 9 245 -37 29 -110 28 -155 -2z"/>
</g>
</svg>
